<?xml version="1.0" standalone="no"?>
<!DOCTYPE svg PUBLIC "-//W3C//DTD SVG 20010904//EN"
 "http://www.w3.org/TR/2001/REC-SVG-20010904/DTD/svg10.dtd">
<svg version="1.0" xmlns="http://www.w3.org/2000/svg"
 width="1280.000000pt" height="688.000000pt" viewBox="0 0 1280.000000 688.000000"
 preserveAspectRatio="xMidYMid meet">
<g transform="translate(0.000000,688.000000) scale(0.100000,-0.100000)"
fill="#000000" stroke="none">
<path d="M3296 6871 c-4 -6 -24 -11 -45 -11 -75 0 -102 -11 -119 -46 -15 -31
-19 -34 -63 -34 -28 0 -51 -6 -58 -14 -7 -8 -26 -17 -42 -20 -16 -3 -42 -9
-59 -12 -36 -7 -38 -23 -6 -53 21 -20 29 -22 54 -13 21 7 37 6 61 -4 52 -22
132 -18 197 11 66 29 77 30 95 9 12 -14 10 -19 -14 -39 -49 -38 -149 -67 -218
-64 -42 3 -64 0 -66 -8 -6 -16 68 -53 105 -53 16 0 36 -7 43 -16 11 -14 10
-19 -10 -35 -26 -22 -63 -24 -125 -8 -36 9 -49 19 -75 59 -17 26 -31 52 -31
56 0 5 -19 17 -43 27 -23 11 -57 25 -75 33 -31 14 -33 13 -41 -9 -6 -16 -20
-26 -40 -30 -22 -5 -31 -12 -31 -26 0 -20 9 -25 71 -35 21 -4 42 -13 49 -21
10 -12 7 -17 -14 -27 -41 -18 -29 -42 23 -46 33 -3 52 2 73 18 19 14 37 20 51
16 33 -9 117 -74 117 -90 0 -26 -40 -30 -71 -7 -15 12 -30 21 -32 21 -2 0 -3
-15 -3 -34 l1 -33 122 -12 c73 -6 131 -7 145 -2 22 9 22 9 3 16 -55 19 -66 26
-63 43 2 13 17 18 58 23 51 5 106 26 139 53 11 9 8 12 -20 16 -49 7 -50 35 -2
57 21 10 42 24 46 31 10 14 46 16 81 2 22 -8 35 -4 87 30 33 21 65 41 72 44 8
3 6 8 -6 16 -32 21 -2 46 103 86 56 21 104 42 107 47 13 21 -32 37 -102 37
-58 0 -72 3 -82 19 -11 17 -28 20 -150 24 -76 2 -150 8 -164 12 -16 4 -29 3
-33 -4z"/>
<path d="M4639 6856 c-26 -30 -42 -32 -94 -10 -24 10 -51 13 -72 9 -36 -6 -41
-16 -18 -35 21 -18 19 -37 -7 -51 -15 -8 -53 -10 -120 -5 -98 6 -98 6 -110
-19 -12 -27 -37 -32 -56 -13 -10 10 -17 10 -32 0 -11 -6 -47 -12 -80 -12 -43
0 -60 -4 -59 -12 4 -30 -3 -38 -31 -38 -18 0 -33 6 -36 15 -8 21 -24 19 -24
-3 0 -28 -29 -48 -90 -62 -30 -7 -68 -18 -85 -25 l-30 -14 48 0 c38 -1 47 -4
47 -18 0 -30 -36 -79 -66 -90 -63 -23 -101 -33 -121 -33 -11 0 -35 -5 -53 -12
-30 -10 -32 -12 -14 -19 10 -4 42 -8 70 -8 95 -2 114 -51 28 -72 l-47 -12 28
-24 c20 -18 34 -23 55 -18 39 8 282 24 295 18 23 -10 151 -200 161 -238 5 -21
8 -22 26 -12 16 10 22 8 39 -13 20 -23 21 -53 5 -90 -4 -10 4 -21 24 -32 34
-19 41 -57 15 -78 -11 -9 -13 -16 -5 -24 13 -13 13 -46 0 -46 -6 0 -6 -7 2
-19 9 -15 6 -27 -15 -66 -29 -50 -28 -65 4 -65 15 0 19 -7 19 -38 0 -29 10
-53 39 -94 44 -61 71 -82 119 -92 17 -4 38 -17 46 -28 14 -20 14 -20 45 3 25
18 31 30 31 61 0 20 12 62 26 93 32 67 123 155 161 155 46 0 90 29 107 70 9
22 27 44 43 53 15 8 42 22 58 31 20 10 55 16 102 16 48 0 95 7 135 21 85 29
93 39 31 39 -70 0 -81 16 -46 69 33 52 74 57 110 14 17 -21 22 -24 23 -11 0
28 -48 58 -96 58 -43 0 -61 12 -56 41 1 8 -6 23 -17 33 -28 26 -16 46 29 46
29 0 39 4 43 20 7 26 51 26 95 0 36 -22 46 -25 37 -10 -10 17 15 40 42 40 35
0 24 21 -21 43 -31 15 -37 22 -32 39 3 14 -1 26 -12 35 -16 12 -15 14 7 33 13
11 31 20 42 20 16 0 17 2 3 28 -22 42 -18 81 10 93 13 6 29 22 34 35 9 19 8
24 -8 29 -25 8 -26 41 -2 53 9 5 39 12 65 16 27 3 60 15 73 25 14 11 38 23 54
26 52 11 34 27 -22 21 -29 -3 -93 -9 -143 -14 -49 -5 -98 -12 -107 -16 -11 -5
-21 -1 -30 13 -11 18 -23 21 -88 21 -60 0 -95 -7 -175 -35 -114 -40 -155 -44
-155 -17 0 34 188 108 300 119 l65 6 -32 14 c-18 7 -33 20 -33 28 0 20 -44 19
-200 -1 -96 -12 -124 -13 -136 -3 -13 10 -12 14 2 30 10 11 15 21 13 23 -2 2
-38 7 -81 11 -74 7 -77 6 -99 -19z m485 -851 c3 -9 -1 -18 -10 -22 -19 -7 -39
11 -30 26 10 16 33 13 40 -4z"/>
<path d="M8120 6690 c0 -5 7 -10 15 -10 8 0 15 5 15 10 0 6 -7 10 -15 10 -8 0
-15 -4 -15 -10z"/>
<path d="M8015 6670 c-3 -5 3 -10 14 -10 11 0 23 5 26 10 3 6 -3 10 -14 10
-11 0 -23 -4 -26 -10z"/>
<path d="M8345 6650 c-3 -5 -1 -10 4 -10 6 0 11 5 11 10 0 6 -2 10 -4 10 -3 0
-8 -4 -11 -10z"/>
<path d="M9393 6643 c-13 -8 -23 -19 -23 -24 0 -10 90 -12 115 -3 14 6 14 8
-1 25 -21 23 -61 24 -91 2z"/>
<path d="M7711 6636 c-10 -11 -7 -17 11 -30 25 -18 42 -21 33 -6 -3 5 -1 19 5
30 9 17 8 20 -13 20 -14 0 -30 -6 -36 -14z"/>
<path d="M7832 6637 c-7 -8 -6 -18 3 -31 13 -17 15 -17 37 -2 28 20 57 21 64
1 7 -17 40 -20 50 -4 11 18 -13 33 -55 33 -22 1 -43 4 -47 9 -11 11 -40 8 -52
-6z"/>
<path d="M8224 6636 c-10 -8 -16 -17 -13 -20 3 -3 14 3 24 14 21 23 17 26 -11
6z"/>
<path d="M8094 6623 c3 -8 6 -17 6 -19 0 -2 7 -4 15 -4 23 0 18 27 -6 33 -15
4 -19 2 -15 -10z"/>
<path d="M8015 6600 c-3 -5 1 -10 9 -10 8 0 18 5 21 10 3 6 -1 10 -9 10 -8 0
-18 -4 -21 -10z"/>
<path d="M6862 6571 c-18 -25 -19 -30 -6 -35 29 -11 76 -6 105 11 38 23 37 31
-8 38 -21 4 -45 9 -54 11 -8 2 -24 -8 -37 -25z"/>
<path d="M6752 6571 c2 -10 15 -17 37 -19 44 -4 38 20 -8 29 -26 6 -31 4 -29
-10z"/>
<path d="M7210 6580 c0 -5 7 -10 16 -10 8 0 12 5 9 10 -3 6 -10 10 -16 10 -5
0 -9 -4 -9 -10z"/>
<path d="M9348 6573 c7 -3 16 -2 19 1 4 3 -2 6 -13 5 -11 0 -14 -3 -6 -6z"/>
<path d="M9403 6558 c-35 -17 -28 -25 30 -39 28 -6 66 -18 84 -26 54 -22 63
-18 63 27 0 46 -5 48 -36 19 l-22 -21 -17 26 c-19 28 -61 34 -102 14z"/>
<path d="M6519 6558 c-1 -2 -3 -12 -4 -23 -2 -11 -6 -27 -9 -36 -5 -10 2 -20
19 -29 23 -12 30 -12 54 3 57 34 113 10 70 -29 -13 -12 -16 -21 -9 -28 14 -14
13 -22 -6 -41 -13 -12 -14 -19 -4 -30 21 -26 37 -17 68 39 17 29 42 63 57 74
l26 20 -23 16 c-12 9 -31 16 -41 16 -10 0 -31 10 -47 21 l-28 22 -31 -22 c-39
-28 -76 -25 -75 7 0 17 -11 31 -17 20z"/>
<path d="M2348 6508 c7 -9 27 -18 44 -22 17 -3 47 -18 65 -32 38 -29 56 -25
29 5 -22 24 -73 49 -118 58 -29 6 -31 4 -20 -9z"/>
<path d="M9659 6479 c-44 -47 -38 -48 95 -12 19 5 19 6 -3 24 -33 27 -59 24
-92 -12z"/>
<path d="M2130 6440 c0 -5 5 -10 10 -10 6 0 10 5 10 10 0 6 -4 10 -10 10 -5 0
-10 -4 -10 -10z"/>
<path d="M6850 6410 c0 -5 9 -10 21 -10 11 0 17 5 14 10 -3 6 -13 10 -21 10
-8 0 -14 -4 -14 -10z"/>
<path d="M2080 6400 c-8 -5 -12 -11 -9 -14 3 -3 14 1 25 9 21 16 8 20 -16 5z"/>
<path d="M9716 6377 c-10 -8 -21 -31 -25 -53 -6 -37 -8 -39 -46 -42 -22 -2
-62 -10 -88 -18 -29 -10 -61 -14 -80 -10 -18 4 -75 -1 -127 -10 -227 -39 -234
-41 -212 -71 37 -53 22 -73 -45 -62 -27 4 -72 8 -100 8 -46 1 -53 -2 -53 -18
0 -11 14 -28 34 -39 67 -39 89 -134 34 -140 -23 -3 -28 1 -33 25 -11 49 -13
52 -51 68 -62 26 -126 15 -89 -15 8 -7 15 -21 15 -31 0 -15 -7 -19 -32 -19
-23 0 -40 10 -69 40 -21 22 -40 40 -43 40 -3 0 -10 -9 -16 -19 -7 -14 -6 -35
2 -70 10 -47 13 -50 53 -60 43 -11 105 -67 105 -95 0 -8 7 -19 15 -26 36 -30
-1 -61 -41 -35 -13 9 -32 32 -42 53 -25 53 -42 51 -76 -10 -56 -99 -109 -128
-175 -93 -38 19 -46 42 -20 56 15 8 29 7 51 -2 25 -10 31 -10 39 2 19 30 31
124 24 179 -5 30 -9 80 -9 110 l-1 55 -35 3 c-31 3 -38 -1 -54 -30 -10 -18
-32 -47 -49 -65 l-30 -32 29 -36 c53 -67 60 -81 45 -99 -18 -22 -33 -20 -93
10 -28 14 -75 28 -104 31 -49 5 -56 3 -89 -26 -38 -33 -64 -38 -93 -20 -14 9
-27 7 -60 -10 -50 -25 -88 -27 -100 -4 -9 15 -12 15 -51 0 -23 -10 -50 -17
-60 -17 -10 0 -42 -17 -72 -38 -75 -53 -84 -55 -115 -29 -24 21 -25 25 -11 39
17 17 6 38 -20 38 -11 0 -12 -12 -7 -50 8 -61 -5 -80 -53 -80 -46 0 -67 -12
-92 -56 -19 -31 -26 -36 -51 -32 -23 4 -30 0 -32 -16 -5 -33 -58 -33 -96 -1
-17 14 -34 36 -38 48 -3 12 -17 37 -31 55 -25 33 -25 62 -1 62 7 0 42 -9 77
-20 74 -23 140 -19 166 10 15 17 14 20 -17 43 -18 14 -65 40 -103 57 -39 17
-83 38 -98 46 -16 7 -56 14 -90 14 -69 0 -93 10 -84 34 9 23 -23 36 -77 32
-26 -2 -49 1 -52 5 -9 16 -39 10 -57 -11 -9 -11 -29 -20 -46 -20 -16 0 -34 -6
-40 -14 -6 -7 -41 -22 -76 -32 -56 -16 -65 -22 -65 -42 0 -15 -11 -29 -35 -43
-19 -12 -35 -27 -35 -33 0 -7 -22 -27 -50 -45 -27 -18 -50 -39 -50 -48 0 -8
-14 -20 -30 -26 -32 -12 -32 -11 -14 -73 4 -14 -3 -31 -19 -50 -22 -25 -28
-27 -50 -17 -22 10 -29 7 -77 -37 l-52 -48 9 -78 c8 -79 8 -79 38 -82 22 -2
43 6 73 28 24 17 47 28 52 25 12 -7 41 -73 65 -144 19 -58 17 -57 98 -29 33
11 37 17 37 46 0 38 15 71 42 90 22 16 23 50 3 76 -38 51 -7 141 64 184 37 23
50 38 59 70 7 23 22 48 35 57 42 30 117 11 117 -30 0 -7 -19 -36 -42 -65 -85
-103 -90 -111 -83 -155 11 -63 21 -69 92 -51 84 22 145 21 174 -3 22 -18 23
-21 8 -36 -11 -11 -46 -20 -100 -26 -46 -5 -88 -14 -93 -19 -5 -5 -2 -22 7
-43 27 -57 -4 -107 -44 -71 -27 25 -49 11 -49 -31 0 -47 -12 -69 -54 -94 -28
-17 -39 -19 -58 -11 -19 9 -36 6 -93 -20 -69 -31 -70 -31 -86 -11 -13 16 -24
18 -58 14 -35 -5 -46 -2 -66 17 l-25 23 0 -25 c0 -31 -14 -43 -60 -53 -58 -13
-94 -35 -110 -68 -8 -18 -28 -38 -45 -46 -16 -8 -49 -31 -73 -52 -24 -21 -57
-41 -73 -44 -16 -4 -34 -15 -39 -26 -7 -12 -21 -19 -41 -19 l-30 0 35 -34 c65
-61 85 -149 45 -200 l-21 -27 -114 7 -114 7 0 -63 c0 -34 -5 -80 -12 -101 -15
-52 0 -84 49 -104 20 -9 41 -21 45 -28 10 -16 144 28 175 59 12 13 23 35 23
49 0 27 23 53 79 88 21 14 38 36 47 61 16 48 27 56 84 56 25 0 56 7 70 15 51
29 75 20 147 -56 38 -39 81 -78 98 -86 16 -9 40 -25 53 -36 20 -18 24 -19 32
-7 14 21 11 26 -45 68 -33 25 -63 61 -89 106 l-39 67 24 25 c24 23 25 24 48 7
13 -10 36 -32 53 -50 16 -17 54 -51 84 -75 41 -32 62 -59 85 -108 39 -82 53
-98 82 -93 19 4 23 10 20 31 -3 23 2 30 32 45 20 9 55 17 78 17 54 0 67 13 67
67 0 74 69 188 130 213 25 10 34 10 55 -4 18 -12 24 -23 20 -36 -4 -13 1 -22
15 -30 27 -15 35 -8 21 18 -9 17 -7 24 15 41 28 22 85 37 109 27 18 -6 20 -39
4 -68 -10 -19 -4 -28 60 -85 75 -68 84 -90 51 -123 -27 -27 -112 -27 -182 0
-29 11 -64 20 -78 20 -34 0 -157 -44 -179 -64 -10 -9 -27 -16 -39 -16 -18 0
-22 -6 -22 -34 0 -49 18 -92 43 -103 12 -6 77 -9 145 -8 145 2 144 4 113 -117
-37 -145 -73 -189 -136 -168 -19 6 -54 8 -83 4 -42 -5 -68 0 -161 31 -61 20
-119 34 -130 30 -10 -3 -24 -19 -31 -35 -30 -72 -62 -74 -172 -9 -37 21 -89
49 -115 60 -77 33 -85 44 -78 109 9 88 8 88 -155 76 -62 -5 -135 -20 -210 -43
-86 -26 -127 -34 -162 -31 -43 5 -49 2 -64 -21 -9 -14 -36 -45 -60 -67 -38
-37 -44 -47 -44 -84 0 -56 -25 -105 -73 -143 -22 -18 -58 -59 -80 -92 -22 -33
-51 -73 -66 -88 -25 -27 -26 -33 -32 -190 -3 -103 -10 -172 -19 -189 -13 -27
-10 -33 58 -132 39 -57 75 -121 81 -143 11 -39 56 -89 118 -132 31 -21 39 -22
145 -15 70 4 145 16 196 30 112 33 133 31 178 -11 31 -30 44 -35 85 -35 75 0
79 -9 79 -163 l0 -133 40 -53 c22 -29 43 -65 47 -80 3 -14 16 -45 29 -68 13
-25 25 -71 29 -111 6 -61 3 -81 -24 -166 -17 -53 -31 -110 -31 -126 0 -16 13
-63 30 -104 16 -41 36 -116 45 -168 21 -116 44 -186 101 -299 46 -92 53 -126
32 -148 -11 -10 -8 -16 12 -31 30 -24 58 -24 178 -5 122 20 162 41 219 118 55
75 80 127 93 199 8 43 17 60 49 88 21 19 42 44 45 56 6 19 -5 100 -19 135 -8
21 41 78 113 131 83 62 94 86 89 193 -2 50 -9 100 -15 112 -7 12 -19 58 -28
103 l-17 81 43 87 c36 73 59 102 140 182 53 52 111 117 129 143 56 82 141 281
126 295 -2 2 -46 -4 -98 -13 -81 -16 -97 -16 -122 -4 -26 13 -102 112 -182
237 -16 24 -40 58 -55 76 -20 25 -29 48 -34 92 -6 68 -51 180 -106 272 -47 77
-58 119 -34 128 9 3 22 1 29 -4 7 -6 23 -9 35 -6 17 5 27 -3 52 -42 17 -27 38
-73 47 -102 10 -29 25 -58 35 -63 23 -12 48 -61 48 -94 0 -38 22 -84 68 -139
31 -37 44 -65 52 -105 6 -31 14 -72 18 -91 5 -26 13 -36 29 -38 12 -2 95 34
193 83 191 97 265 156 313 252 l26 53 -44 30 c-24 17 -52 44 -62 60 l-17 30
-26 -25 c-32 -31 -96 -58 -120 -50 -10 3 -23 18 -29 33 -6 15 -36 74 -67 132
l-56 104 22 18 c41 33 74 20 120 -47 38 -55 80 -78 140 -76 40 0 51 -4 73 -29
29 -33 46 -36 200 -49 102 -8 110 -10 140 -39 18 -17 49 -38 70 -47 43 -18 55
-38 37 -60 -10 -12 -9 -16 6 -22 12 -4 22 0 32 15 8 12 21 22 28 22 16 0 21
-20 30 -125 6 -74 36 -197 54 -220 4 -5 11 -21 15 -35 12 -44 88 -200 97 -200
20 0 49 93 57 183 l9 95 139 137 c119 118 145 139 188 152 91 27 92 26 151
-61 49 -71 54 -84 54 -132 0 -62 12 -68 61 -32 30 23 31 23 45 4 8 -11 14 -27
14 -35 0 -9 10 -57 23 -108 l23 -91 16 29 c14 24 24 29 55 29 38 0 83 -22 83
-41 0 -6 13 -27 29 -47 16 -20 31 -45 33 -56 2 -16 13 -10 66 35 l63 53 -7 60
c-8 87 -19 115 -69 186 -25 35 -45 73 -45 84 0 24 77 106 100 106 9 0 21 -5
27 -11 8 -8 17 -7 34 4 13 8 56 25 94 37 39 12 83 27 98 32 38 15 112 91 146
152 15 28 36 65 47 83 18 31 18 32 0 52 -15 17 -16 23 -6 36 10 12 9 16 -4 21
-20 8 -20 23 0 45 14 15 12 21 -15 65 -40 62 -39 88 2 129 l33 33 -44 7 c-59
9 -98 45 -81 76 25 48 122 108 153 96 9 -4 16 -15 16 -25 0 -15 6 -17 35 -14
50 6 89 -21 82 -56 -4 -20 3 -35 24 -60 22 -24 29 -43 29 -72 0 -45 -1 -44 35
-28 32 14 32 37 0 116 -14 34 -25 70 -25 80 0 11 36 58 81 106 80 85 81 86
120 80 37 -6 42 -4 80 37 87 94 151 204 174 301 32 136 13 200 -53 177 -28
-10 -37 -7 -76 18 -28 17 -45 35 -46 48 0 11 26 44 63 78 137 130 247 198 286
177 26 -13 104 -13 135 1 20 9 38 8 84 -5 77 -21 91 -20 101 7 19 50 134 127
189 127 34 0 55 -20 46 -44 -10 -27 61 19 74 48 12 28 49 43 65 27 18 -18 -17
-76 -75 -122 -29 -23 -92 -78 -139 -123 -85 -80 -87 -82 -94 -139 -7 -51 7
-165 22 -190 7 -12 90 79 97 108 4 14 20 34 36 43 19 11 31 27 35 49 3 18 13
36 21 41 12 7 13 16 4 59 -9 39 -8 57 1 75 18 36 51 68 69 68 8 0 24 6 35 14
31 21 123 31 152 15 22 -12 30 -10 71 14 89 53 157 81 210 85 28 3 52 9 52 14
0 23 -32 68 -57 80 -30 14 -42 46 -23 58 7 4 30 3 52 -2 47 -10 63 -1 71 41 8
39 33 47 53 16 12 -19 20 -22 38 -15 18 6 36 0 86 -32 l63 -40 25 32 c13 17
35 36 48 40 36 14 29 29 -22 51 l-45 20 -20 -25 c-24 -30 -46 -25 -54 14 -16
73 -158 140 -355 165 -59 8 -114 17 -124 21 -13 5 -16 -1 -16 -30 0 -49 -16
-53 -96 -27 -45 15 -90 21 -150 21 -100 0 -148 16 -158 53 -8 33 -36 39 -149
31 -86 -6 -95 -5 -144 20 -28 15 -55 35 -58 46 -8 26 -40 26 -96 1 -50 -23
-76 -13 -58 20 9 18 5 19 -56 21 -36 1 -73 2 -82 2 -11 1 -20 -10 -25 -31 -14
-53 -23 -55 -190 -50 -77 3 -89 1 -93 -14 -8 -24 -39 -33 -67 -18 -37 20 -97
70 -114 97 -16 24 -16 26 7 44 19 16 20 21 8 29 -22 14 -106 11 -146 -6 -44
-19 -152 -20 -178 -1 -33 22 -72 27 -122 16 -47 -11 -55 -9 -115 21 -29 15
-47 11 -41 -9 3 -15 -5 -22 -39 -35 -85 -33 -177 -15 -130 25 40 33 128 83
176 98 45 15 51 20 54 47 4 43 -34 57 -127 48 -56 -5 -80 -3 -116 11 -40 15
-46 21 -42 41 3 18 0 23 -17 23 -12 0 -30 -6 -40 -13z m-2504 -994 c10 -9 18
-27 18 -40 0 -20 -5 -23 -40 -23 -33 0 -42 4 -52 24 -6 14 -8 32 -5 40 8 21
55 20 79 -1z m728 -768 c18 -21 8 -47 -25 -65 -38 -21 -45 -62 -16 -101 12
-16 21 -37 21 -47 0 -26 11 -34 27 -21 10 9 17 8 28 -1 19 -16 20 -50 1 -50
-21 0 -30 -19 -17 -34 18 -22 26 -113 11 -131 -32 -38 -126 -26 -157 22 -15
22 -14 29 2 82 17 58 17 59 -4 87 -11 16 -30 55 -41 86 -31 90 -27 116 26 149
62 38 123 49 144 24z m278 -66 c4 -44 -29 -80 -56 -63 -24 16 -25 35 -2 72 27
44 54 40 58 -9z"/>
<path d="M1876 6351 c-15 -6 -16 -10 -7 -15 8 -5 20 -2 29 8 17 17 9 19 -22 7z"/>
<path d="M1788 6310 c-29 -26 -31 -29 -12 -30 11 0 33 14 49 30 39 41 8 41
-37 0z"/>
<path d="M2675 6315 c6 -2 29 -9 52 -15 30 -7 46 -19 61 -43 16 -28 29 -35 78
-47 57 -13 287 -16 327 -4 26 8 22 35 -5 30 -54 -11 -247 -16 -293 -7 -36 7
-57 18 -75 39 -18 21 -40 33 -78 41 -50 10 -89 14 -67 6z"/>
<path d="M2197 6272 c-9 -44 -43 -51 -110 -23 -29 12 -72 25 -96 28 -39 5 -43
4 -39 -13 3 -15 11 -18 41 -16 46 4 77 -12 77 -39 0 -15 5 -19 18 -15 9 3 53
15 96 26 79 20 104 30 74 30 -9 0 -25 12 -36 26 l-19 27 -6 -31z"/>
<path d="M2508 6270 c-4 -26 -1 -30 19 -30 25 0 32 27 11 48 -19 19 -25 15
-30 -18z"/>
<path d="M8225 6264 c-27 -8 -74 -20 -102 -26 -30 -7 -53 -18 -53 -25 0 -7
-14 -29 -32 -49 -29 -33 -31 -37 -15 -49 24 -18 21 -23 -15 -27 -19 -2 -38
-13 -50 -29 l-20 -26 38 -37 c20 -20 46 -36 56 -36 11 0 18 3 16 8 -2 4 -10
19 -17 34 -20 40 -2 74 83 156 55 54 82 73 116 81 25 6 65 17 90 25 l45 14
-45 0 c-25 1 -67 -6 -95 -14z"/>
<path d="M10974 6265 c-12 -29 4 -48 34 -40 15 4 42 7 60 7 22 0 32 4 32 15 0
10 -6 13 -16 9 -8 -3 -31 1 -51 9 -44 19 -52 19 -59 0z"/>
<path d="M11155 6260 c3 -5 13 -10 21 -10 8 0 14 5 14 10 0 6 -9 10 -21 10
-11 0 -17 -4 -14 -10z"/>
<path d="M2665 6220 c3 -5 13 -10 21 -10 8 0 14 5 14 10 0 6 -9 10 -21 10 -11
0 -17 -4 -14 -10z"/>
<path d="M10025 6180 c3 -5 13 -10 21 -10 8 0 12 5 9 10 -3 6 -13 10 -21 10
-8 0 -12 -4 -9 -10z"/>
<path d="M1728 6159 c-23 -9 -28 -17 -28 -43 0 -17 -7 -42 -16 -54 -15 -21
-14 -24 8 -42 29 -25 47 -25 78 0 14 11 29 20 34 20 4 0 24 13 42 30 19 16 46
33 59 36 52 13 21 39 -55 47 -30 4 -64 8 -75 11 -11 3 -32 0 -47 -5z"/>
<path d="M2743 6143 c-32 -6 -46 -28 -38 -63 7 -31 25 -42 25 -15 0 8 18 26
40 40 60 38 49 53 -27 38z"/>
<path d="M11072 6138 c3 -7 15 -14 29 -16 24 -4 24 -3 4 12 -24 19 -38 20 -33
4z"/>
<path d="M2542 6124 c-22 -10 -32 -20 -29 -29 3 -7 -1 -19 -8 -25 -18 -15 -12
-26 27 -50 24 -14 36 -16 59 -8 33 11 35 19 13 53 -10 16 -14 34 -10 50 7 29
-2 31 -52 9z"/>
<path d="M3210 6111 c0 -16 17 -21 50 -15 22 5 28 9 18 15 -18 12 -68 11 -68
0z"/>
<path d="M2913 6084 c-24 -19 -33 -34 -33 -56 0 -29 34 -98 48 -98 313 -18
318 -19 404 -48 90 -30 118 -46 118 -67 0 -7 6 -15 14 -18 8 -3 19 -21 26 -41
9 -29 17 -35 43 -38 37 -4 49 -34 22 -54 -14 -10 -23 -10 -51 3 -39 19 -61 8
-66 -35 -3 -24 -7 -27 -48 -30 -63 -3 -90 -11 -90 -23 0 -8 16 -9 50 -5 39 5
60 2 100 -15 27 -12 50 -26 50 -31 0 -5 16 -16 35 -24 19 -8 35 -18 35 -22 0
-5 27 -16 60 -25 59 -17 59 -17 85 7 14 13 25 32 25 42 0 11 -25 47 -55 81
-30 33 -55 66 -55 71 0 11 48 52 60 52 5 0 27 -16 50 -35 23 -19 47 -35 54
-35 11 0 56 52 56 65 0 3 -19 15 -42 26 -24 11 -54 26 -68 34 -14 8 -34 15
-46 15 -11 0 -31 11 -44 25 -21 22 -22 29 -12 45 7 11 12 23 12 28 0 12 -61
39 -104 47 -20 4 -40 13 -44 19 -4 7 -26 18 -50 26 -24 7 -48 23 -54 34 -15
29 -28 36 -66 36 -23 0 -40 -7 -52 -22 -16 -21 -21 -22 -52 -10 -19 6 -42 12
-51 12 -20 0 -37 30 -37 64 0 21 -5 26 -24 26 -48 0 -77 -60 -56 -115 9 -23 8
-32 -5 -44 -14 -14 -17 -13 -38 7 -18 18 -22 34 -23 85 -1 58 -2 62 -25 65
-14 1 -38 -8 -56 -24z m752 -568 c24 -10 35 -22 35 -35 0 -26 -1 -26 -50 -1
-22 11 -40 27 -40 35 0 19 12 19 55 1z"/>
<path d="M1937 6064 c-41 -21 -47 -28 -41 -47 13 -42 24 -48 78 -42 66 7 110
-5 114 -33 3 -21 -11 -27 -92 -34 l-28 -3 32 -23 c49 -37 88 -38 190 -6 93 28
116 28 191 -1 10 -4 19 3 27 20 11 23 9 26 -24 40 -26 11 -40 27 -59 67 -14
29 -25 61 -25 71 0 20 -23 23 -37 5 -6 -7 -13 -25 -17 -40 -8 -36 -30 -35 -73
2 -35 31 -57 37 -69 19 -3 -6 -17 -8 -31 -4 -14 3 -31 1 -39 -6 -18 -15 -42
-5 -46 19 -3 19 -5 19 -51 -4z"/>
<path d="M2668 5956 c-14 -32 -5 -54 23 -58 36 -5 44 -29 24 -72 -23 -47 -44
-59 -84 -45 -24 9 -41 7 -78 -5 -65 -22 -155 -21 -203 4 -21 11 -41 24 -45 30
-3 5 -15 10 -26 10 -11 0 -17 -5 -14 -10 4 -6 -5 -24 -19 -41 -14 -17 -26 -41
-26 -54 0 -28 -25 -40 -42 -19 -51 63 -53 64 -135 64 -95 0 -108 7 -98 50 l7
33 -42 -7 c-33 -5 -56 -1 -107 19 -50 20 -79 26 -126 23 -37 -1 -76 3 -96 11
-32 14 -36 12 -136 -39 -101 -52 -132 -57 -122 -19 3 12 0 19 -9 19 -16 0 -16
-2 -5 -54 21 -87 -35 -90 -64 -3 -9 27 -19 33 -100 58 -49 15 -100 28 -113 28
-13 1 -31 5 -41 10 -19 11 -189 33 -261 35 -25 1 -51 5 -57 9 -24 16 -118 35
-158 33 -22 -1 -66 -14 -97 -29 -31 -15 -61 -27 -66 -27 -6 0 -29 -15 -51 -34
-23 -19 -54 -37 -71 -41 -16 -4 -32 -11 -35 -16 -9 -13 42 -55 103 -85 59 -30
65 -36 56 -59 -11 -28 -49 -36 -94 -20 -30 11 -47 11 -70 4 -35 -13 -34 -8
-15 -46 10 -21 25 -33 45 -37 34 -6 88 2 96 15 3 5 14 9 24 9 24 0 36 -40 21
-68 -14 -27 -60 -59 -90 -63 -13 -2 -33 -17 -45 -32 l-21 -28 20 -37 c13 -24
31 -40 50 -45 34 -11 41 -14 80 -42 18 -12 48 -21 79 -22 28 -1 54 -2 59 -3
13 0 8 -55 -8 -76 -8 -10 -15 -23 -15 -27 -1 -26 125 83 146 127 48 101 61
116 102 116 32 0 38 -25 12 -57 -13 -17 -17 -29 -10 -31 21 -7 41 8 55 42 20
48 47 54 96 21 24 -15 76 -34 129 -46 49 -10 115 -29 147 -41 32 -12 76 -24
97 -27 34 -5 43 -12 66 -51 16 -28 42 -54 68 -68 49 -27 75 -70 74 -123 -1
-29 5 -41 24 -53 13 -9 24 -23 24 -31 0 -8 9 -19 20 -25 13 -7 20 -21 20 -38
0 -23 7 -30 33 -40 39 -14 121 -91 143 -134 17 -34 5 -68 -26 -68 -10 0 -21
-4 -24 -8 -3 -5 -6 -76 -7 -158 -2 -160 9 -224 42 -252 11 -9 33 -44 48 -77
26 -56 92 -129 140 -155 10 -5 31 -41 47 -80 16 -39 39 -83 51 -98 l23 -27
-19 44 c-14 32 -17 50 -10 63 19 35 69 15 85 -35 7 -22 104 -172 166 -256 60
-81 78 -116 78 -149 0 -47 39 -81 172 -147 95 -47 117 -55 162 -54 45 2 60 -3
125 -44 41 -26 96 -54 122 -62 55 -19 116 -80 125 -125 4 -18 11 -27 19 -24 7
3 25 -7 39 -22 14 -16 45 -34 68 -41 54 -16 55 -16 62 2 4 12 0 14 -18 9 -16
-4 -32 3 -55 21 -48 41 -54 61 -52 156 2 98 8 91 -96 105 -70 9 -80 22 -64 82
41 158 39 168 -22 151 -38 -10 -57 -33 -57 -67 0 -31 -34 -53 -91 -58 -70 -7
-109 17 -144 86 -29 58 -46 161 -34 205 5 16 9 48 9 70 0 53 17 75 84 109 l56
28 71 -16 c88 -20 93 -20 85 -1 -8 22 33 55 68 54 17 0 55 -4 85 -8 66 -10 83
-28 111 -121 19 -64 43 -100 57 -87 3 4 -6 54 -21 111 -14 58 -26 116 -26 128
0 14 26 52 68 99 123 139 128 148 113 191 -15 42 -14 70 3 93 12 17 16 18 32
5 14 -12 18 -12 22 -2 13 40 70 97 107 108 38 10 40 13 37 46 -5 53 28 84 132
124 48 19 98 34 109 34 18 1 16 3 -9 14 -61 27 -84 89 -38 100 19 5 24 10 16
18 -14 14 -72 -6 -118 -43 -42 -33 -62 -37 -71 -12 -5 12 9 31 46 65 74 68 98
78 214 88 60 5 129 18 167 32 l65 23 0 40 0 40 -67 -3 c-63 -3 -68 -2 -68 18
0 12 12 28 30 39 l31 18 -26 17 c-14 9 -37 21 -50 26 -14 5 -34 24 -43 41 -9
17 -29 50 -44 73 -15 22 -30 56 -34 74 -8 39 -19 40 -55 6 -15 -14 -46 -30
-70 -35 -40 -9 -45 -8 -71 19 -29 29 -34 46 -24 92 5 22 -2 30 -54 64 -62 39
-119 54 -164 42 -28 -7 -52 -62 -41 -96 4 -11 1 -44 -5 -73 -11 -48 -10 -56 9
-87 26 -44 27 -80 0 -132 -12 -23 -24 -73 -28 -117 -5 -42 -13 -87 -20 -99
-20 -37 -58 -28 -112 27 -47 46 -49 50 -49 104 0 54 -1 57 -27 62 -66 14 -96
25 -160 61 -37 21 -81 43 -98 49 -22 7 -33 20 -41 45 -9 27 -18 36 -39 38 -19
3 -30 12 -40 35 -19 46 -9 78 46 144 27 32 56 72 64 90 16 35 42 53 74 53 29
0 71 21 71 36 0 7 -13 15 -30 19 -44 10 -41 42 5 51 19 3 46 3 60 0 20 -5 25
-3 25 14 0 16 7 20 33 21 43 1 98 22 111 42 7 11 6 23 -3 40 -7 13 -11 33 -9
44 4 29 -20 53 -53 53 -24 0 -29 -4 -29 -23 0 -29 -55 -107 -75 -107 -15 0
-45 48 -45 73 0 7 -6 22 -14 33 -14 19 -15 19 -38 -3 -32 -30 -56 -29 -64 1
-3 14 -17 32 -30 41 -18 12 -23 22 -19 36 5 14 0 29 -16 45 -30 32 -66 31 -81
0z m255 -1173 c9 -9 -13 -34 -24 -27 -14 8 -11 34 4 34 8 0 17 -3 20 -7z m54
-83 c18 -10 44 -37 59 -60 22 -33 36 -43 83 -56 78 -22 90 -35 62 -70 -11 -14
-21 -33 -21 -40 0 -37 -74 19 -82 61 -2 11 -11 21 -20 23 -23 4 -52 -44 -67
-113 -21 -95 -57 -55 -49 55 3 38 8 48 35 65 18 11 32 23 33 27 0 13 -65 28
-121 28 -32 0 -60 4 -64 9 -5 9 99 91 114 91 3 0 20 -9 38 -20z m378 -49 c0
-8 -8 -19 -17 -25 -22 -13 -44 5 -34 29 7 20 51 16 51 -4z m-117 -58 c-2 -10
-10 -18 -18 -18 -8 0 -16 8 -18 18 -2 12 3 17 18 17 15 0 20 -5 18 -17z m112
-107 c0 -7 -26 -25 -57 -39 -32 -15 -78 -40 -103 -57 -49 -33 -70 -38 -70 -16
0 16 29 37 125 88 74 40 105 47 105 24z"/>
<path d="M8170 5905 c14 -16 40 -20 40 -6 0 9 -24 21 -42 21 -6 0 -6 -6 2 -15z"/>
<path d="M2561 5867 c-8 -11 -6 -18 8 -31 18 -16 21 -16 52 -1 l33 17 -33 14
c-41 17 -46 17 -60 1z"/>
<path d="M7805 5859 c-4 -6 -4 -13 -1 -16 8 -8 36 5 36 17 0 13 -27 13 -35 -1z"/>
<path d="M3338 5763 c7 -3 16 -2 19 1 4 3 -2 6 -13 5 -11 0 -14 -3 -6 -6z"/>
<path d="M5405 5663 c-23 -3 -44 -12 -52 -22 -7 -10 -26 -24 -43 -31 -36 -15
-37 -19 -9 -49 19 -20 29 -23 73 -19 52 5 176 54 176 70 0 5 -7 20 -16 33 -17
26 -30 28 -129 18z"/>
<path d="M3013 5578 c0 -24 -2 -52 -4 -63 -6 -30 27 -30 63 0 19 16 37 24 47
19 9 -3 25 -9 36 -12 l20 -5 -20 23 c-11 12 -45 34 -75 48 -30 14 -58 28 -61
29 -4 2 -6 -15 -6 -39z"/>
<path d="M24 5495 c22 -17 42 -19 50 -6 6 9 -26 21 -54 21 -11 -1 -10 -4 4
-15z"/>
<path d="M3090 5440 c0 -5 4 -10 9 -10 6 0 13 5 16 10 3 6 -1 10 -9 10 -9 0
-16 -4 -16 -10z"/>
<path d="M3210 5429 c0 -5 5 -7 10 -4 6 3 10 8 10 11 0 2 -4 4 -10 4 -5 0 -10
-5 -10 -11z"/>
<path d="M5887 5191 c-12 -21 -15 -41 -11 -75 6 -38 12 -49 39 -65 48 -28 53
-64 14 -108 l-31 -36 26 -14 c30 -16 34 -38 9 -52 -11 -6 6 -7 53 -4 58 4 73
9 92 30 l24 26 -25 21 c-14 12 -34 42 -45 67 -11 26 -37 65 -57 88 -33 36 -37
45 -27 65 10 22 8 25 -15 31 -20 5 -24 11 -20 30 6 33 -5 31 -26 -4z"/>
<path d="M623 5185 c-15 -13 -23 -25 -17 -25 6 0 21 11 34 25 30 32 19 32 -17
0z"/>
<path d="M6396 5102 c-4 -13 -5 -26 -2 -29 10 -11 18 4 14 29 l-4 23 -8 -23z"/>
<path d="M5770 5026 c0 -8 -8 -22 -17 -32 -10 -10 -18 -22 -19 -28 0 -6 -4
-24 -9 -39 -4 -15 -5 -30 -2 -33 9 -9 86 35 97 55 15 30 12 78 -6 85 -26 10
-44 7 -44 -8z"/>
<path d="M11111 4945 c-9 -22 -10 -40 -2 -70 6 -22 13 -59 16 -81 5 -34 10
-41 25 -37 17 4 17 8 4 39 -8 19 -18 67 -23 107 -7 69 -8 71 -20 42z"/>
<path d="M3140 4931 c0 -5 5 -13 10 -16 6 -3 10 -2 10 4 0 5 -4 13 -10 16 -5
3 -10 2 -10 -4z"/>
<path d="M3994 4746 c-33 -29 -37 -37 -28 -53 11 -18 30 -20 99 -12 27 4 30 1
33 -24 3 -28 4 -28 23 -11 41 37 11 94 -50 94 -28 0 -33 3 -28 20 7 28 -4 25
-49 -14z"/>
<path d="M3800 4751 c0 -10 25 -21 48 -21 15 1 14 3 -2 15 -22 17 -46 20 -46
6z"/>
<path d="M11130 4630 c0 -5 5 -10 11 -10 5 0 7 5 4 10 -3 6 -8 10 -11 10 -2 0
-4 -4 -4 -10z"/>
<path d="M3770 4530 l-35 -31 42 23 c24 13 43 26 43 31 0 14 -16 7 -50 -23z"/>
<path d="M11087 4543 c-4 -3 -7 -19 -7 -34 0 -18 -9 -34 -27 -47 -25 -18 -26
-22 -15 -46 11 -25 32 -36 32 -16 0 6 10 10 23 10 29 0 119 58 114 73 -2 7
-14 14 -27 15 -13 2 -38 15 -55 28 -18 13 -35 21 -38 17z"/>
<path d="M11025 4293 c-10 -59 -23 -83 -44 -83 -14 0 -19 -5 -15 -15 9 -23
-16 -47 -41 -41 -16 4 -27 -2 -43 -24 -15 -19 -34 -31 -59 -36 -45 -8 -68 -19
-106 -50 -16 -13 -37 -24 -48 -24 -22 0 -23 -6 -4 -40 8 -14 14 -40 15 -58 0
-44 18 -38 48 17 17 30 32 44 53 48 36 7 47 23 25 35 -9 5 -16 13 -16 18 0 18
44 10 67 -12 22 -21 23 -21 43 -3 12 11 41 20 74 23 l53 4 27 92 c38 127 39
133 32 161 -5 18 -13 25 -31 25 -20 0 -25 -6 -30 -37z"/>
<path d="M6370 4306 c0 -9 5 -16 10 -16 6 0 10 4 10 9 0 6 -4 13 -10 16 -5 3
-10 -1 -10 -9z"/>
<path d="M6893 4207 c-4 -7 -17 -19 -28 -25 -11 -6 -15 -12 -9 -12 17 0 60 37
52 45 -3 4 -10 0 -15 -8z"/>
<path d="M6546 4192 c-3 -5 6 -14 20 -21 22 -10 25 -9 22 6 -4 19 -33 30 -42
15z"/>
<path d="M7225 4080 c4 -6 11 -8 16 -5 14 9 11 15 -7 15 -8 0 -12 -5 -9 -10z"/>
<path d="M2005 3750 c-5 -17 0 -29 24 -54 16 -17 37 -47 45 -67 16 -39 53 -79
39 -43 -3 10 -18 37 -31 58 -13 22 -35 60 -47 84 -21 41 -23 43 -30 22z"/>
<path d="M10585 3679 c-11 -17 1 -21 15 -4 8 9 8 15 2 15 -6 0 -14 -5 -17 -11z"/>
<path d="M10346 3555 c-3 -9 -6 -22 -5 -28 0 -7 5 -1 10 12 5 13 8 26 5 28 -2
2 -6 -3 -10 -12z"/>
<path d="M3098 3520 c-30 -18 -21 -31 16 -25 26 5 48 -1 105 -29 39 -20 77
-45 83 -56 14 -21 53 -26 78 -10 20 14 0 29 -105 80 -87 42 -150 56 -177 40z"/>
<path d="M530 3386 c0 -17 14 -29 23 -20 8 8 -3 34 -14 34 -5 0 -9 -6 -9 -14z"/>
<path d="M3470 3345 c-11 -13 -6 -15 33 -15 57 0 85 9 65 21 -22 14 -85 10
-98 -6z"/>
<path d="M3288 3313 c7 -3 16 -2 19 1 4 3 -2 6 -13 5 -11 0 -14 -3 -6 -6z"/>
<path d="M10347 3313 c-3 -5 -7 -33 -11 -63 -8 -61 2 -83 43 -95 l24 -7 -22
30 c-26 37 -26 43 -2 83 11 17 17 38 14 45 -5 15 -39 19 -46 7z"/>
<path d="M10450 3091 c0 -5 5 -13 10 -16 6 -3 10 -2 10 4 0 5 -4 13 -10 16 -5
3 -10 2 -10 -4z"/>
<path d="M3433 3017 c-32 -17 -46 -33 -62 -69 -11 -27 -24 -48 -29 -48 -5 0
-21 9 -35 20 -33 26 -56 27 -33 1 26 -28 45 -89 46 -141 0 -46 -14 -80 -72
-172 -15 -24 -33 -64 -40 -91 -11 -41 -10 -51 5 -76 16 -27 16 -29 -3 -46 -11
-10 -20 -24 -20 -32 0 -7 22 -66 49 -131 26 -64 60 -151 75 -192 32 -91 33
-92 121 -162 131 -104 128 -100 121 -171 -3 -34 -13 -168 -21 -297 -17 -254
-25 -306 -62 -387 -24 -53 -37 -152 -34 -253 9 -244 4 -268 -46 -255 -20 5
-16 -2 21 -38 49 -47 58 -76 26 -84 -17 -4 -20 -14 -20 -57 0 -28 -3 -61 -6
-73 -5 -17 -2 -23 9 -23 9 0 33 -14 52 -32 l37 -31 24 29 c13 16 27 40 30 54
4 14 17 39 30 57 13 17 24 35 24 38 0 4 14 24 30 45 17 21 30 40 30 43 0 4
-11 17 -25 31 -35 35 -33 80 4 115 17 16 33 41 37 57 4 16 13 37 21 46 11 12
12 21 4 37 -20 36 -13 60 17 67 48 10 51 12 76 53 22 35 32 41 83 51 117 24
140 59 88 130 -14 19 -25 43 -25 53 0 20 7 20 65 -4 67 -26 132 33 214 198 38
76 43 91 38 133 -4 30 -1 54 6 63 26 33 180 127 219 133 52 9 71 30 103 118
20 53 28 100 34 186 l7 115 54 70 c62 82 80 120 80 173 0 36 -5 43 -66 89 -58
46 -72 52 -132 58 -76 8 -90 14 -149 61 -49 40 -62 42 -92 10 -30 -32 -70 -46
-99 -35 -31 12 -27 38 8 50 17 6 30 18 30 26 0 10 -15 4 -49 -21 -54 -40 -71
-44 -71 -18 0 20 21 54 59 95 21 23 23 31 14 46 -6 10 -17 37 -23 60 -12 47
-62 87 -120 96 -19 4 -46 9 -59 11 -28 6 -191 160 -191 181 0 9 -18 13 -68 13
-44 0 -86 7 -122 21 -82 31 -85 32 -97 17 -6 -7 -13 -26 -15 -43 -2 -22 -9
-31 -25 -33 -27 -4 -47 30 -39 64 4 13 5 24 4 23 -2 0 -22 -10 -45 -22z"/>
<path d="M9570 2917 c0 -8 11 -35 25 -58 14 -24 25 -52 25 -62 0 -45 88 -179
97 -150 9 25 -30 128 -62 167 -18 23 -40 55 -49 73 -18 36 -36 51 -36 30z"/>
<path d="M8896 2886 c-7 -30 2 -56 19 -56 21 0 26 15 14 49 -13 37 -25 40 -33
7z"/>
<path d="M10453 2896 c-44 -16 -51 -26 -19 -26 19 0 29 -7 36 -25 12 -32 25
-32 46 0 33 51 3 75 -63 51z"/>
<path d="M10126 2743 c-110 -101 -153 -136 -177 -145 -18 -7 -20 -14 -15 -40
8 -42 52 -115 79 -133 12 -7 51 -15 87 -17 l65 -3 3 40 c2 22 9 47 16 55 7 8
25 37 40 63 30 52 28 79 -8 108 l-21 18 33 33 c17 19 32 37 32 40 0 4 -13 16
-30 28 l-30 21 -74 -68z"/>
<path d="M9487 2737 c4 -7 24 -36 45 -66 21 -30 38 -60 38 -66 0 -6 18 -36 40
-65 22 -29 40 -59 40 -66 0 -13 107 -134 119 -134 6 0 41 89 41 104 0 3 -7 6
-17 6 -24 0 -81 47 -100 83 -22 44 -170 204 -194 210 -13 3 -17 1 -12 -6z"/>
<path d="M10590 2574 c0 -8 5 -12 10 -9 6 3 10 10 10 16 0 5 -4 9 -10 9 -5 0
-10 -7 -10 -16z"/>
<path d="M10306 2508 c-10 -31 -15 -98 -10 -113 6 -14 10 -10 20 15 20 47 38
35 72 -50 l11 -25 0 27 c1 14 -10 40 -24 56 -14 17 -25 41 -25 54 0 27 -38 57
-44 36z"/>
<path d="M10773 2484 c28 -15 34 -28 17 -39 -20 -13 -9 -30 20 -31 30 -1 30 0
15 22 -8 13 -15 30 -15 38 0 15 -21 26 -48 26 -11 -1 -8 -6 11 -16z"/>
<path d="M10902 2422 l-32 -27 45 -29 c55 -34 81 -77 64 -107 -13 -25 -18 -20
54 -47 74 -28 83 -27 119 3 44 37 68 32 120 -25 25 -27 53 -50 63 -50 14 0 13
5 -8 30 -14 16 -31 46 -37 67 -7 21 -19 46 -28 56 -34 39 -271 158 -314 157
-7 0 -28 -13 -46 -28z"/>
<path d="M10633 2413 c9 -2 23 -2 30 0 6 3 -1 5 -18 5 -16 0 -22 -2 -12 -5z"/>
<path d="M11480 2411 c0 -5 5 -13 10 -16 6 -3 10 -2 10 4 0 5 -4 13 -10 16 -5
3 -10 2 -10 -4z"/>
<path d="M11398 2349 c-41 -21 -50 -39 -20 -39 18 0 70 46 61 54 -2 2 -21 -5
-41 -15z"/>
<path d="M9843 2265 c21 -12 209 -56 237 -55 3 0 -10 10 -27 21 -18 12 -61 25
-95 29 -35 5 -81 12 -103 15 l-40 6 28 -16z"/>
<path d="M11750 2210 c0 -5 5 -10 11 -10 5 0 7 5 4 10 -3 6 -8 10 -11 10 -2 0
-4 -4 -4 -10z"/>
<path d="M10515 2191 c-43 -26 -73 -61 -53 -61 22 0 100 59 93 70 -8 12 -5 13
-40 -9z"/>
<path d="M10325 2180 c3 -5 10 -10 16 -10 5 0 9 5 9 10 0 6 -7 10 -16 10 -8 0
-12 -4 -9 -10z"/>
<path d="M10729 2037 c-37 -46 -54 -78 -54 -107 0 -22 -5 -25 -44 -28 -33 -2
-52 2 -73 18 l-28 20 -40 -37 c-24 -23 -40 -47 -40 -60 0 -22 -9 -27 -37 -24
-7 1 -13 -8 -13 -20 0 -35 -62 -83 -172 -137 -57 -27 -114 -61 -128 -76 -22
-24 -23 -30 -12 -56 40 -98 38 -91 18 -105 -18 -14 -18 -15 -1 -52 28 -59 55
-171 55 -230 0 -90 44 -115 124 -68 23 14 66 29 95 35 29 5 68 22 88 37 47 36
185 65 246 51 54 -12 111 -49 133 -88 10 -16 21 -30 24 -30 3 0 15 18 28 41
31 54 58 50 55 -8 -1 -33 2 -42 18 -46 10 -3 19 -13 19 -24 0 -10 18 -46 40
-79 43 -68 64 -78 130 -61 35 10 42 9 63 -11 l23 -22 24 25 c12 13 38 29 56
35 24 8 34 19 39 41 4 17 24 77 46 133 27 74 43 136 54 220 21 162 22 157 -28
193 -24 16 -62 58 -85 92 -23 35 -53 72 -66 82 -34 27 -65 95 -77 170 -6 35
-17 71 -24 79 -8 9 -24 37 -36 64 -11 26 -24 44 -29 40 -4 -5 -15 -44 -23 -86
-18 -89 -49 -166 -71 -174 -19 -7 -139 76 -163 113 -17 25 -15 38 13 125 7 21
-17 34 -76 42 -42 5 -47 3 -71 -27z"/>
<path d="M7785 1962 c-11 -20 -42 -51 -70 -69 -68 -45 -75 -57 -75 -130 0 -39
-6 -76 -16 -95 -28 -53 -3 -178 37 -186 8 -1 27 6 41 18 22 17 31 40 53 138
15 64 35 149 46 188 19 72 23 125 11 156 -6 14 -11 11 -27 -20z"/>
<path d="M11905 1660 c19 -21 45 -27 45 -10 0 11 -33 30 -51 30 -8 0 -5 -7 6
-20z"/>
<path d="M12242 885 c-11 -41 -10 -47 8 -65 11 -11 20 -24 20 -30 0 -5 5 -10
10 -10 6 0 10 6 10 14 0 7 14 30 30 51 35 44 37 55 11 55 -10 0 -21 7 -25 15
-3 8 -16 15 -29 15 -19 0 -25 -8 -35 -45z"/>
<path d="M11210 745 c0 -3 7 -21 14 -40 18 -42 60 -50 70 -12 13 50 9 57 -39
57 -25 0 -45 -2 -45 -5z"/>
<path d="M12160 730 c-11 -11 -20 -25 -20 -31 0 -6 -29 -41 -64 -77 -35 -37
-68 -76 -74 -88 -10 -19 -7 -22 29 -33 48 -15 65 -5 74 42 4 18 20 51 36 74
16 23 29 46 29 51 0 5 7 15 15 22 17 14 21 60 5 60 -5 0 -19 -9 -30 -20z"/>
<path d="M8502 364 c9 -9 21 -13 28 -9 14 9 -5 25 -30 25 -12 0 -12 -3 2 -16z"/>
<path d="M3880 229 c0 -5 5 -7 10 -4 6 3 10 8 10 11 0 2 -4 4 -10 4 -5 0 -10
-5 -10 -11z"/>
<path d="M3410 180 c0 -5 5 -10 11 -10 5 0 7 5 4 10 -3 6 -8 10 -11 10 -2 0
-4 -4 -4 -10z"/>
<path d="M3577 133 c-2 -10 -8 -25 -11 -33 -5 -11 5 -18 35 -28 61 -19 72 -2
29 43 -39 40 -46 42 -53 18z"/>
<path d="M4704 102 c9 -15 48 -23 43 -9 -2 7 -14 14 -26 15 -13 2 -21 -1 -17
-6z"/>
</g>
</svg>
